<?xml version="1.0" encoding="utf-8"?>
<!-- Generator: Adobe Illustrator 21.1.0, SVG Export Plug-In . SVG Version: 6.00 Build 0)  -->
<svg version="1.1" id="Layer_1" xmlns="http://www.w3.org/2000/svg" xmlns:xlink="http://www.w3.org/1999/xlink" x="0px" y="0px"
	 viewBox="0 0 50 50" style="enable-background:new 0 0 50 50;" xml:space="preserve">
<style type="text/css">
	.st0{fill:#FFFFFF;}
</style>
<rect x="31.5" y="30" width="18" height="5"/>
<rect x="2" y="30" width="18" height="5"/>
<rect x="32" y="15" width="18" height="5"/>
<rect x="2" y="15" width="18" height="5"/>
<rect x="15" y="32" width="5" height="18"/>
<rect x="30" y="32" width="5" height="18"/>
<rect x="30" y="2" width="5" height="18"/>
<rect x="15" y="2" width="5" height="18"/>
<rect x="13" class="st0" width="5" height="18"/>
<rect x="28" class="st0" width="5" height="18"/>
<rect x="13" y="30" class="st0" width="5" height="18"/>
<rect x="28" y="30" class="st0" width="5" height="18"/>
<rect y="13" class="st0" width="18" height="5"/>
<rect x="30" y="13" class="st0" width="18" height="5"/>
<rect y="28" class="st0" width="18" height="5"/>
<rect x="30" y="28" class="st0" width="18" height="5"/>
</svg>
