<?xml version="1.0" encoding="utf-8"?>
<!-- Generator: Adobe Illustrator 21.1.0, SVG Export Plug-In . SVG Version: 6.00 Build 0)  -->
<svg version="1.1" id="Layer_1" xmlns="http://www.w3.org/2000/svg" xmlns:xlink="http://www.w3.org/1999/xlink" x="0px" y="0px"
	 viewBox="0 0 50 50" style="enable-background:new 0 0 50 50;" xml:space="preserve">
<style type="text/css">
	.st0{fill:#3FCA87;}
</style>
<g>
	<path d="M46.7,33.1c0.2,0,0.3-0.1,0.4-0.3l0.8-3.1c0-0.2-0.1-0.4-0.2-0.4L43.9,27c-0.1-0.1-0.2-0.3-0.2-0.4c0,0,0-0.6,0-1.1
		c0-0.7-0.1-1.8-0.1-1.8c0-0.2,0.1-0.4,0.2-0.5l3.7-2.4c0.1-0.1,0.2-0.3,0.2-0.5l-1-3.1c-0.1-0.2-0.2-0.3-0.4-0.3L42,17.3
		c-0.2,0-0.4-0.1-0.5-0.2l-1.7-2.5c-0.1-0.1-0.1-0.4-0.1-0.5l1.8-4.1c0.1-0.2,0-0.4-0.1-0.5l-2.4-2c-0.1-0.1-0.3-0.1-0.5,0l-3.6,2.5
		C35,10,34.8,10,34.6,10l-3-1.4c-0.2-0.1-0.3-0.2-0.3-0.4l-0.7-4.4c0-0.2-0.2-0.3-0.3-0.3L27.3,3c-0.2,0-0.3,0.1-0.4,0.3l-1.6,4
		c-0.1,0.2-0.2,0.3-0.4,0.3l-3.6,0.5c-0.2,0-0.4,0-0.5-0.2l-2.9-3.3c-0.1-0.1-0.3-0.2-0.5-0.1l-2.6,1.2c-0.1,0.1-0.2,0.3-0.2,0.4
		l0.8,4.3c0,0.2,0,0.4-0.2,0.5l-2.9,2.6c-0.1,0.1-0.3,0.2-0.5,0.1l-4.2-1.2c-0.2,0-0.4,0-0.5,0.2l-1.4,2.3c-0.1,0.1-0.1,0.4,0.1,0.5
		l3,3.2C8.9,18.6,9,18.8,8.9,19l-1,3.9c0,0.2-0.2,0.3-0.3,0.4l-4.2,1.2c-0.2,0-0.3,0.2-0.3,0.4c0,0,0,0.3,0,0.7c0,0.8,0.1,2,0.1,2
		c0,0.2,0.2,0.3,0.3,0.4l4.3,1c0.2,0,0.3,0.2,0.4,0.4L9.3,33c0.1,0.2,0,0.4-0.1,0.5l-2.8,3.3c-0.1,0.1-0.1,0.3,0,0.5L8,39.6
		c0.1,0.1,0.3,0.2,0.5,0.1l4.2-1.4c0.2-0.1,0.4,0,0.5,0.1l2.9,2.3c0.1,0.1,0.2,0.3,0.2,0.5l-0.6,4.3c0,0.2,0.1,0.4,0.2,0.4l2.7,1.1
		c0.2,0.1,0.4,0,0.5-0.1l2.8-3.5c0.1-0.1,0.3-0.2,0.5-0.2c0,0,2.1,0.3,3.3,0.3c0.1,0,0.1,0,0.1,0c0.1,0,0.3,0.1,0.4,0.3l1.8,4
		c0.1,0.1,0.3,0.3,0.4,0.2l3-0.6c0.2,0,0.3-0.2,0.3-0.4l0.4-4.4c0-0.2,0.2-0.4,0.3-0.4l2.7-1.4c0.1-0.1,0.4-0.1,0.5,0l3.7,2.3
		c0.1,0.1,0.4,0.1,0.5,0l2.3-2.2c0.1-0.1,0.1-0.3,0.1-0.5l-2-3.9c-0.1-0.1-0.1-0.4,0-0.5l1.5-2.5c0.1-0.1,0.3-0.3,0.4-0.3L46.7,33.1
		z M25.5,37.5c-6.7,0-12.1-5.4-12.1-12s5.4-12,12.1-12s12.1,5.4,12.1,12S32.2,37.5,25.5,37.5z"/>
</g>
<g>
	<path class="st0" d="M44.7,31.1c0.2,0,0.3-0.1,0.4-0.3l0.8-3.1c0-0.2-0.1-0.4-0.2-0.4L41.9,25c-0.1-0.1-0.2-0.3-0.2-0.4
		c0,0,0-0.6,0-1.1c0-0.7-0.1-1.8-0.1-1.8c0-0.2,0.1-0.4,0.2-0.5l3.7-2.4c0.1-0.1,0.2-0.3,0.2-0.5l-1-3.1c-0.1-0.2-0.2-0.3-0.4-0.3
		L40,15.3c-0.2,0-0.4-0.1-0.5-0.2l-1.7-2.5c-0.1-0.1-0.1-0.4-0.1-0.5l1.8-4.1c0.1-0.2,0-0.4-0.1-0.5l-2.4-2c-0.1-0.1-0.3-0.1-0.5,0
		l-3.6,2.5C33,8,32.8,8,32.6,8l-3-1.4c-0.2-0.1-0.3-0.2-0.3-0.4l-0.7-4.4c0-0.2-0.2-0.3-0.3-0.3L25.3,1c-0.2,0-0.3,0.1-0.4,0.3
		l-1.6,4c-0.1,0.2-0.2,0.3-0.4,0.3l-3.6,0.5c-0.2,0-0.4,0-0.5-0.2l-2.9-3.3c-0.1-0.1-0.3-0.2-0.5-0.1l-2.6,1.2
		c-0.1,0.1-0.2,0.3-0.2,0.4l0.8,4.3c0,0.2,0,0.4-0.2,0.5l-2.9,2.6c-0.1,0.1-0.3,0.2-0.5,0.1l-4.2-1.2c-0.2,0-0.4,0-0.5,0.2l-1.4,2.3
		c-0.1,0.1-0.1,0.4,0.1,0.5l3,3.2C6.9,16.6,7,16.8,6.9,17l-1,3.9c0,0.2-0.2,0.3-0.3,0.4l-4.2,1.2c-0.2,0-0.3,0.2-0.3,0.4
		c0,0,0,0.3,0,0.7c0,0.8,0.1,2,0.1,2c0,0.2,0.2,0.3,0.3,0.4l4.3,1c0.2,0,0.3,0.2,0.4,0.4L7.3,31c0.1,0.2,0,0.4-0.1,0.5l-2.8,3.3
		c-0.1,0.1-0.1,0.3,0,0.5L6,37.6c0.1,0.1,0.3,0.2,0.5,0.1l4.2-1.4c0.2-0.1,0.4,0,0.5,0.1l2.9,2.3c0.1,0.1,0.2,0.3,0.2,0.5l-0.6,4.3
		c0,0.2,0.1,0.4,0.2,0.4l2.7,1.1c0.2,0.1,0.4,0,0.5-0.1l2.8-3.5c0.1-0.1,0.3-0.2,0.5-0.2c0,0,2.1,0.3,3.3,0.3c0.1,0,0.1,0,0.1,0
		c0.1,0,0.3,0.1,0.4,0.3l1.8,4c0.1,0.1,0.3,0.3,0.4,0.2l3-0.6c0.2,0,0.3-0.2,0.3-0.4l0.4-4.4c0-0.2,0.2-0.4,0.3-0.4l2.7-1.4
		c0.1-0.1,0.4-0.1,0.5,0l3.7,2.3c0.1,0.1,0.4,0.1,0.5,0l2.3-2.2c0.1-0.1,0.1-0.3,0.1-0.5l-2-3.9c-0.1-0.1-0.1-0.4,0-0.5l1.5-2.5
		c0.1-0.1,0.3-0.3,0.4-0.3L44.7,31.1z M23.5,35.5c-6.7,0-12.1-5.4-12.1-12s5.4-12,12.1-12s12.1,5.4,12.1,12S30.2,35.5,23.5,35.5z"/>
</g>
</svg>
