<?xml version="1.0" encoding="utf-8"?>
<!-- Generator: Adobe Illustrator 21.1.0, SVG Export Plug-In . SVG Version: 6.00 Build 0)  -->
<svg version="1.1" id="Layer_1" xmlns="http://www.w3.org/2000/svg" xmlns:xlink="http://www.w3.org/1999/xlink" x="0px" y="0px"
	 viewBox="0 0 50 50" style="enable-background:new 0 0 50 50;" xml:space="preserve">
<style type="text/css">
	.st0{fill:#FFFFFF;}
	.st1{fill:none;stroke:#000000;stroke-width:2;stroke-miterlimit:10;}
	.st2{fill:none;stroke:#FFFFFF;stroke-width:2;stroke-miterlimit:10;}
</style>
<polygon points="2.3,16.3 21,16.3 30.3,8.6 30.3,43.5 21,35.9 2.3,35.9 "/>
<polygon class="st0" points="0,13.8 18.7,13.8 28,6.2 28,41.1 18.7,33.4 0,33.4 "/>
<path class="st1" d="M41.1,3.1c1.9,3.1,6.8,11.8,6.4,24c-0.3,11-4.7,18.8-6.7,21.9"/>
<path class="st2" d="M38.8,0.7c1.9,3.1,6.8,11.8,6.4,24c-0.3,11-4.7,18.8-6.7,21.9"/>
<path class="st1" d="M34.7,8.9c1.2,2.2,3.6,7.3,4,14.5c0.5,10.6-3.8,18.1-4.9,19.9"/>
<path class="st2" d="M32.4,6.4c1.2,2.2,3.6,7.3,4,14.5c0.5,10.6-3.8,18.1-4.9,19.9"/>
</svg>
